<svg width="93" height="38" viewBox="0 0 93 38" fill="none" xmlns="http://www.w3.org/2000/svg"> <path d="M0 9.206C0 4.12166 4.12167 0 9.20601 0H83.7746C88.859 0 92.9807 4.12167 92.9807 9.20601V28.5387C92.9807 33.623 88.859 37.7447 83.7746 37.7447H9.206C4.12167 37.7447 0 33.623 0 28.5387V9.206Z" fill="#202229"></path> <path d="M45.0272 14.2227H42.7883L42.3758 15.3643H41.6688L43.5248 10.2604H44.2981L46.1466 15.3643H45.4396L45.0272 14.2227ZM44.8357 13.6777L43.9077 11.0853L42.9798 13.6777H44.8357ZM50.5348 11.3283V15.3643H49.8646V14.7677C49.7369 14.9739 49.5577 15.1359 49.327 15.2538C49.1011 15.3667 48.8507 15.4232 48.5757 15.4232C48.2615 15.4232 47.9792 15.3593 47.7288 15.2317C47.4784 15.0991 47.2795 14.9027 47.1322 14.6425C46.9899 14.3823 46.9187 14.0656 46.9187 13.6924V11.3283H47.5815V13.6041C47.5815 14.0018 47.6821 14.3086 47.8834 14.5247C48.0848 14.7358 48.3597 14.8414 48.7083 14.8414C49.0667 14.8414 49.349 14.7309 49.5553 14.5099C49.7615 14.289 49.8646 13.9674 49.8646 13.5452V11.3283H50.5348ZM51.416 13.3316C51.416 12.9191 51.4994 12.5583 51.6664 12.2489C51.8333 11.9347 52.0616 11.6917 52.3513 11.5198C52.6459 11.348 52.9749 11.2621 53.3382 11.2621C53.6524 11.2621 53.9446 11.3357 54.2146 11.483C54.4846 11.6254 54.6909 11.8144 54.8332 12.0501V9.9143H55.5108V15.3643H54.8332V14.6057C54.7007 14.8463 54.5043 15.0451 54.2441 15.2022C53.9838 15.3544 53.6794 15.4305 53.3308 15.4305C52.9724 15.4305 52.6459 15.3422 52.3513 15.1654C52.0616 14.9887 51.8333 14.7407 51.6664 14.4216C51.4994 14.1024 51.416 13.7391 51.416 13.3316ZM54.8332 13.3389C54.8332 13.0345 54.7719 12.7694 54.6491 12.5435C54.5264 12.3177 54.3594 12.1458 54.1483 12.028C53.9421 11.9053 53.7138 11.8439 53.4634 11.8439C53.213 11.8439 52.9847 11.9028 52.7785 12.0206C52.5722 12.1385 52.4078 12.3103 52.285 12.5362C52.1623 12.762 52.1009 13.0272 52.1009 13.3316C52.1009 13.6409 52.1623 13.9109 52.285 14.1417C52.4078 14.3676 52.5722 14.5419 52.7785 14.6646C52.9847 14.7824 53.213 14.8414 53.4634 14.8414C53.7138 14.8414 53.9421 14.7824 54.1483 14.6646C54.3594 14.5419 54.5264 14.3676 54.6491 14.1417C54.7719 13.9109 54.8332 13.6433 54.8332 13.3389ZM56.9895 10.6729C56.8619 10.6729 56.7538 10.6287 56.6655 10.5403C56.5771 10.4519 56.5329 10.3439 56.5329 10.2163C56.5329 10.0886 56.5771 9.98059 56.6655 9.89221C56.7538 9.80383 56.8619 9.75964 56.9895 9.75964C57.1123 9.75964 57.2154 9.80383 57.2988 9.89221C57.3872 9.98059 57.4314 10.0886 57.4314 10.2163C57.4314 10.3439 57.3872 10.4519 57.2988 10.5403C57.2154 10.6287 57.1123 10.6729 56.9895 10.6729ZM57.3136 11.3283V15.3643H56.6434V11.3283H57.3136ZM59.2733 11.8807V14.2595C59.2733 14.4559 59.315 14.5959 59.3985 14.6793C59.482 14.7579 59.6268 14.7972 59.833 14.7972H60.3265V15.3643H59.7225C59.3494 15.3643 59.0695 15.2783 58.883 15.1065C58.6964 14.9346 58.6031 14.6523 58.6031 14.2595V11.8807H58.0802V11.3283H58.6031V10.312H59.2733V11.3283H60.3265V11.8807H59.2733ZM64.8209 13.1916C64.8209 13.3193 64.8135 13.4543 64.7988 13.5967H61.573C61.5976 13.9944 61.7326 14.3062 61.9781 14.532C62.2285 14.753 62.5304 14.8635 62.8839 14.8635C63.1736 14.8635 63.4142 14.7972 63.6057 14.6646C63.8021 14.5271 63.9396 14.3455 64.0181 14.1196H64.7399C64.6319 14.5075 64.4158 14.8242 64.0918 15.0697C63.7677 15.3102 63.3651 15.4305 62.8839 15.4305C62.501 15.4305 62.1573 15.3446 61.8529 15.1728C61.5534 15.0009 61.3177 14.7579 61.1459 14.4437C60.974 14.1245 60.8881 13.7563 60.8881 13.3389C60.8881 12.9216 60.9716 12.5558 61.1385 12.2416C61.3054 11.9273 61.5386 11.6868 61.8381 11.5198C62.1426 11.348 62.4912 11.2621 62.8839 11.2621C63.2669 11.2621 63.6057 11.3455 63.9003 11.5125C64.1949 11.6794 64.4207 11.9102 64.5779 12.2048C64.7399 12.4944 64.8209 12.8234 64.8209 13.1916ZM64.1286 13.0517C64.1286 12.7964 64.0721 12.5779 63.9592 12.3962C63.8463 12.2097 63.6916 12.0697 63.4952 11.9764C63.3037 11.8782 63.0902 11.8292 62.8545 11.8292C62.5157 11.8292 62.226 11.9372 61.9854 12.1532C61.7498 12.3692 61.6147 12.6687 61.5804 13.0517H64.1286ZM65.4551 13.3316C65.4551 12.9191 65.5386 12.5583 65.7055 12.2489C65.8725 11.9347 66.1008 11.6917 66.3905 11.5198C66.6851 11.348 67.014 11.2621 67.3773 11.2621C67.6916 11.2621 67.9837 11.3357 68.2538 11.483C68.5238 11.6254 68.73 11.8144 68.8724 12.0501V9.9143H69.55V15.3643H68.8724V14.6057C68.7398 14.8463 68.5434 15.0451 68.2832 15.2022C68.023 15.3544 67.7186 15.4305 67.37 15.4305C67.0116 15.4305 66.6851 15.3422 66.3905 15.1654C66.1008 14.9887 65.8725 14.7407 65.7055 14.4216C65.5386 14.1024 65.4551 13.7391 65.4551 13.3316ZM68.8724 13.3389C68.8724 13.0345 68.811 12.7694 68.6883 12.5435C68.5655 12.3177 68.3986 12.1458 68.1875 12.028C67.9813 11.9053 67.7529 11.8439 67.5025 11.8439C67.2521 11.8439 67.0238 11.9028 66.8176 12.0206C66.6114 12.1385 66.4469 12.3103 66.3242 12.5362C66.2014 12.762 66.1401 13.0272 66.1401 13.3316C66.1401 13.6409 66.2014 13.9109 66.3242 14.1417C66.4469 14.3676 66.6114 14.5419 66.8176 14.6646C67.0238 14.7824 67.2521 14.8414 67.5025 14.8414C67.7529 14.8414 67.9813 14.7824 68.1875 14.6646C68.3986 14.5419 68.5655 14.3676 68.6883 14.1417C68.811 13.9109 68.8724 13.6433 68.8724 13.3389ZM73.3162 12.0796C73.4537 11.839 73.655 11.6426 73.9201 11.4904C74.1852 11.3382 74.4872 11.2621 74.826 11.2621C75.1893 11.2621 75.5158 11.348 75.8055 11.5198C76.0952 11.6917 76.3235 11.9347 76.4904 12.2489C76.6574 12.5583 76.7408 12.9191 76.7408 13.3316C76.7408 13.7391 76.6574 14.1024 76.4904 14.4216C76.3235 14.7407 76.0927 14.9887 75.7981 15.1654C75.5085 15.3422 75.1844 15.4305 74.826 15.4305C74.4774 15.4305 74.1705 15.3544 73.9054 15.2022C73.6452 15.05 73.4488 14.8561 73.3162 14.6204V15.3643H72.646V9.9143H73.3162V12.0796ZM76.0559 13.3316C76.0559 13.0272 75.9945 12.762 75.8718 12.5362C75.749 12.3103 75.5821 12.1385 75.371 12.0206C75.1648 11.9028 74.9365 11.8439 74.686 11.8439C74.4406 11.8439 74.2122 11.9053 74.0011 12.028C73.7949 12.1458 73.628 12.3201 73.5003 12.5509C73.3776 12.7768 73.3162 13.0394 73.3162 13.3389C73.3162 13.6433 73.3776 13.9109 73.5003 14.1417C73.628 14.3676 73.7949 14.5419 74.0011 14.6646C74.2122 14.7824 74.4406 14.8414 74.686 14.8414C74.9365 14.8414 75.1648 14.7824 75.371 14.6646C75.5821 14.5419 75.749 14.3676 75.8718 14.1417C75.9945 13.9109 76.0559 13.6409 76.0559 13.3316ZM81.0992 11.3283L78.6688 17.2644H77.9765L78.7719 15.3201L77.1443 11.3283H77.8881L79.1549 14.5983L80.4069 11.3283H81.0992ZM47.4551 19.5199V26.3643H46.5615V23.2612H43.0755V26.3643H42.1819V19.5199H43.0755V22.5247H46.5615V19.5199H47.4551ZM48.6471 23.654C48.6471 23.1041 48.7583 22.6229 48.9809 22.2105C49.2035 21.7915 49.5079 21.4675 49.8942 21.2384C50.2869 21.0092 50.7223 20.8947 51.2002 20.8947C51.6715 20.8947 52.0807 20.9961 52.4277 21.1991C52.7746 21.402 53.0332 21.6573 53.2034 21.965V20.983H54.1068V26.3643H53.2034V25.3626C53.0267 25.6769 52.7615 25.9387 52.408 26.1482C52.061 26.3512 51.6552 26.4526 51.1904 26.4526C50.7125 26.4526 50.2804 26.3348 49.8942 26.0991C49.5079 25.8635 49.2035 25.5329 48.9809 25.1073C48.7583 24.6818 48.6471 24.1974 48.6471 23.654ZM53.2034 23.6638C53.2034 23.2579 53.1216 22.9044 52.9579 22.6033C52.7943 22.3022 52.5717 22.073 52.2902 21.9159C52.0152 21.7523 51.7108 21.6704 51.3769 21.6704C51.0431 21.6704 50.7387 21.749 50.4637 21.9061C50.1887 22.0632 49.9694 22.2923 49.8058 22.5935C49.6421 22.8946 49.5603 23.2481 49.5603 23.654C49.5603 24.0664 49.6421 24.4265 49.8058 24.7342C49.9694 25.0353 50.1887 25.2677 50.4637 25.4314C50.7387 25.5885 51.0431 25.6671 51.3769 25.6671C51.7108 25.6671 52.0152 25.5885 52.2902 25.4314C52.5717 25.2677 52.7943 25.0353 52.9579 24.7342C53.1216 24.4265 53.2034 24.0697 53.2034 23.6638ZM55.283 23.6638C55.283 23.1074 55.3943 22.6229 55.6169 22.2105C55.8395 21.7915 56.1472 21.4675 56.54 21.2384C56.9393 21.0092 57.3943 20.8947 57.9049 20.8947C58.5661 20.8947 59.1095 21.0551 59.535 21.3758C59.9671 21.6966 60.2518 22.1418 60.3893 22.7113H59.427C59.3353 22.384 59.1553 22.1254 58.8869 21.9356C58.625 21.7457 58.2977 21.6508 57.9049 21.6508C57.3943 21.6508 56.9819 21.8275 56.6676 22.181C56.3534 22.528 56.1963 23.0223 56.1963 23.6638C56.1963 24.3119 56.3534 24.8127 56.6676 25.1662C56.9819 25.5198 57.3943 25.6965 57.9049 25.6965C58.2977 25.6965 58.625 25.6049 58.8869 25.4216C59.1488 25.2383 59.3288 24.9764 59.427 24.636H60.3893C60.2453 25.1859 59.9572 25.6278 59.5252 25.9616C59.0931 26.289 58.553 26.4526 57.9049 26.4526C57.3943 26.4526 56.9393 26.3381 56.54 26.1089C56.1472 25.8798 55.8395 25.5558 55.6169 25.1368C55.3943 24.7178 55.283 24.2268 55.283 23.6638ZM64.5865 26.3643L62.4752 23.9879V26.3643H61.5816V19.0976H62.4752V23.3692L64.5472 20.983H65.7943L63.2608 23.6638L65.8041 26.3643H64.5865ZM71.5452 23.4674C71.5452 23.6376 71.5354 23.8177 71.5158 24.0075H67.2147C67.2475 24.5378 67.4275 24.9535 67.7548 25.2546C68.0887 25.5492 68.4913 25.6965 68.9626 25.6965C69.3489 25.6965 69.6697 25.6081 69.925 25.4314C70.1868 25.2481 70.3701 25.0059 70.4749 24.7047H71.4372C71.2932 25.2219 71.0051 25.6441 70.5731 25.9715C70.141 26.2922 69.6042 26.4526 68.9626 26.4526C68.452 26.4526 67.9938 26.3381 67.5879 26.1089C67.1885 25.8798 66.8743 25.5558 66.6452 25.1368C66.4161 24.7113 66.3015 24.2203 66.3015 23.6638C66.3015 23.1074 66.4128 22.6197 66.6354 22.2007C66.8579 21.7817 67.1689 21.4609 67.5682 21.2384C67.9741 21.0092 68.4389 20.8947 68.9626 20.8947C69.4733 20.8947 69.925 21.006 70.3178 21.2285C70.7106 21.4511 71.0117 21.7588 71.2212 22.1516C71.4372 22.5378 71.5452 22.9764 71.5452 23.4674ZM70.6222 23.2809C70.6222 22.9404 70.5469 22.6491 70.3963 22.4069C70.2457 22.1581 70.0395 21.9716 69.7777 21.8472C69.5224 21.7162 69.2376 21.6508 68.9234 21.6508C68.4716 21.6508 68.0854 21.7948 67.7646 22.0829C67.4504 22.3709 67.2704 22.7702 67.2245 23.2809H70.6222ZM75.3466 20.8848C76.0013 20.8848 76.5315 21.0845 76.9374 21.4838C77.3433 21.8766 77.5462 22.4462 77.5462 23.1925V26.3643H76.6625V23.3201C76.6625 22.7833 76.5283 22.3742 76.2599 22.0927C75.9914 21.8046 75.6248 21.6606 75.16 21.6606C74.6887 21.6606 74.3123 21.8079 74.0308 22.1025C73.7558 22.3971 73.6183 22.8259 73.6183 23.3889V26.3643H72.7247V20.983H73.6183V21.749C73.7951 21.474 74.034 21.2613 74.3352 21.1107C74.6429 20.9601 74.98 20.8848 75.3466 20.8848Z" fill="white"></path> <path d="M33.7665 14.079V8.69141H35.5576V28.446H33.7665V19.4666H31.9754V28.446H30.1843V19.4666H10.4825V21.2625H28.3932V28.446H26.6025V23.0584H17.647V28.446H15.8558V23.0584H14.0647V28.446H12.2736V23.0584H10.4825V28.446H8.69141V8.69141H10.4825V17.6708H12.2736V8.69141H14.0647V17.6708H33.7665V15.8749H15.8558V8.69141H17.647V14.079H26.6025V8.69141H28.3932V14.079H30.1843V8.69141H31.9754V14.079H33.7665Z" fill="white"></path> </svg>
